<svg width="220" height="45" viewBox="0 0 220 45" fill="none" xmlns="http://www.w3.org/2000/svg">
<path d="M11.6575 0.556297C12.7967 0.187716 13.9867 0 15.1842 0H30.8158C32.0133 0 33.2033 0.187716 34.3425 0.556297L35.1707 0.824241C36.2957 1.18826 37.3219 1.80589 38.1698 2.62937C39.3587 3.78396 40.1432 5.29059 40.4072 6.92574L40.6468 8.41061C40.7038 8.76388 40.7813 9.1125 40.8785 9.45479L43.7106 8.95598C44.5454 8.80895 45.3415 9.36574 45.4887 10.1996C45.6359 11.0335 45.0785 11.8287 44.2437 11.9757L42.2693 12.3235C42.3402 12.4215 42.4132 12.5183 42.4881 12.6137L42.8727 13.1036C44.8988 15.6839 46 18.8686 46 22.1479V30.8364C46 32.5625 45.3095 34.2171 44.0821 35.4321L43.9309 35.5818C42.6726 36.8275 40.9863 36.8088 39.9827 36.7977C39.8947 36.7967 39.8119 36.7958 39.7351 36.7958C39.6938 36.7958 39.6515 36.7959 39.6081 36.796L39.6047 36.796C38.4767 36.7984 36.6397 36.8023 35.3255 35.359L35.2438 35.2693C34.1998 34.1227 33.6213 32.6286 33.6213 31.0787V29.8966C33.6213 29.0499 34.3085 28.3634 35.1562 28.3634C36.0039 28.3634 36.6911 29.0499 36.6911 29.8966V31.0787C36.6911 31.8655 36.9848 32.6241 37.5148 33.2061L37.5965 33.2959C37.7496 33.464 37.9396 33.5718 38.2648 33.641C38.6383 33.7204 39.0843 33.7295 39.7351 33.7295L39.9152 33.7296C40.462 33.7302 40.8287 33.7306 41.1623 33.674C41.4748 33.6209 41.6396 33.533 41.77 33.4039L41.9212 33.2542C42.5669 32.615 42.9302 31.7445 42.9302 30.8364V22.1479C42.9302 19.5547 42.0594 17.0364 40.4572 14.9959L40.0726 14.5061C38.7917 12.8748 37.9465 10.9454 37.6161 8.89864L37.3765 7.41377C37.2176 6.42959 36.7454 5.52277 36.0299 4.82783C35.5195 4.33219 34.9019 3.96044 34.2247 3.74134L33.3965 3.4734C32.5629 3.20368 31.6921 3.06632 30.8158 3.06632H15.1842C14.3079 3.06632 13.4371 3.20368 12.6035 3.4734L11.7753 3.74134C11.0981 3.96044 10.4805 4.33219 9.97013 4.82783C9.25458 5.52277 8.78236 6.42959 8.62351 7.41377L8.38386 8.89863C8.05353 10.9454 7.2083 12.8748 5.9274 14.5061L5.54277 14.9959C3.94056 17.0364 3.0698 19.5547 3.0698 22.1479V30.8364C3.0698 31.7445 3.43306 32.615 4.07879 33.2542L4.23001 33.4039C4.52632 33.6973 4.79229 33.7295 6.13961 33.7295C6.78661 33.7295 7.27409 33.7211 7.68885 33.6376C8.07123 33.5606 8.27113 33.4412 8.40346 33.2959L8.48519 33.2061C9.01519 32.6241 9.30888 31.8655 9.30888 31.0787V30.1521C9.30888 30.1032 9.31117 30.0548 9.31566 30.0071C9.31306 29.9706 9.31174 29.9337 9.31174 29.8966V27.6712C9.31174 27.2208 9.50603 26.793 9.84346 26.4965C9.85526 26.4862 9.86725 26.4759 9.87944 26.4659C11.1792 25.3915 12.2368 24.0547 12.9828 22.5433L14.5006 19.4685C15.1448 18.1637 17.0563 18.3231 17.4749 19.7165L18.8788 24.39L21.5435 14.8749C22.0748 12.9778 24.7209 12.8552 25.4257 14.695L28.178 21.8791L29.4423 19.5324C29.7991 18.87 30.4914 18.4569 31.2444 18.4569H33.9356C34.7833 18.4569 35.4705 19.1433 35.4705 19.9901C35.4705 20.8368 34.7833 21.5232 33.9356 21.5232H31.8558L29.8228 25.2968C28.9928 26.8373 26.7352 26.6925 26.1092 25.0587L23.6655 18.68L20.8841 28.6118C20.3318 30.5838 17.5422 30.6099 16.953 28.6486L15.6045 24.1596C14.7866 25.7385 13.695 27.1589 12.3815 28.3552V29.8966C12.3815 29.9455 12.3792 29.9939 12.3748 30.0417C12.3774 30.0782 12.3787 30.115 12.3787 30.1521V31.0787C12.3787 32.6286 11.8002 34.1227 10.7562 35.2693L10.6745 35.359C9.96805 36.1348 9.09155 36.4831 8.29558 36.6434C7.53866 36.7958 6.75302 36.7958 6.15537 36.7958H6.1396C6.06197 36.7958 5.97977 36.7966 5.89354 36.7975C4.88419 36.8077 3.32322 36.8234 2.06907 35.5818L1.91786 35.4321C0.690464 34.2171 0 32.5625 0 30.8364V22.1479C0 18.8686 1.10115 15.6839 3.1273 13.1036L3.51193 12.6137C3.58874 12.5159 3.66346 12.4166 3.73607 12.316L1.80329 11.9756C0.968462 11.8286 0.411034 11.0334 0.558236 10.1995C0.705438 9.36564 1.50153 8.80884 2.33635 8.95588L5.12373 9.44681C5.21989 9.10708 5.29662 8.76114 5.35319 8.41061L5.59284 6.92574C5.85675 5.29059 6.64132 3.78396 7.83016 2.62937C8.67808 1.80589 9.70426 1.18826 10.8293 0.824241L11.6575 0.556297Z" fill="white"/>
<path d="M66.16 31.3278L65.008 30.0478L76.72 19.3918C76.9333 19.2211 77.136 19.1358 77.328 19.1358C77.5413 19.1358 77.744 19.2425 77.936 19.4558C78.128 19.6691 78.224 19.8825 78.224 20.0958C78.224 20.3091 78.1173 20.5011 77.904 20.6718L66.16 31.3278ZM65.84 36.7998C65.5627 36.7998 65.328 36.7145 65.136 36.5438C64.9653 36.3518 64.88 36.1171 64.88 35.8398V12.7678C64.88 12.4691 64.9653 12.2345 65.136 12.0638C65.328 11.8931 65.5627 11.8078 65.84 11.8078C66.1387 11.8078 66.3733 11.8931 66.544 12.0638C66.7147 12.2345 66.8 12.4691 66.8 12.7678V35.8398C66.8 36.1171 66.7147 36.3518 66.544 36.5438C66.3733 36.7145 66.1387 36.7998 65.84 36.7998ZM77.968 36.6398C77.7547 36.8318 77.5307 36.9065 77.296 36.8638C77.0827 36.8425 76.8907 36.7251 76.72 36.5118L69.136 27.2318L70.512 26.1118L78.096 35.3918C78.2667 35.6051 78.3413 35.8185 78.32 36.0318C78.32 36.2451 78.2027 36.4478 77.968 36.6398ZM86.775 36.7998C85.9643 36.7998 85.239 36.5758 84.599 36.1278C83.9803 35.6798 83.4897 35.0611 83.127 34.2718C82.7857 33.4825 82.615 32.5651 82.615 31.5198V12.7678C82.615 12.4691 82.7003 12.2345 82.871 12.0638C83.063 11.8931 83.2977 11.8078 83.575 11.8078C83.8737 11.8078 84.1083 11.8931 84.279 12.0638C84.4497 12.2345 84.535 12.4691 84.535 12.7678V31.5198C84.535 32.5011 84.7377 33.3118 85.143 33.9518C85.5697 34.5705 86.1137 34.8798 86.775 34.8798H87.575C87.8097 34.8798 88.0017 34.9651 88.151 35.1358C88.3003 35.3065 88.375 35.5411 88.375 35.8398C88.375 36.1171 88.2897 36.3518 88.119 36.5438C87.9483 36.7145 87.7137 36.7998 87.415 36.7998H86.775ZM93.48 36.7998C93.2027 36.7998 92.968 36.7145 92.776 36.5438C92.6053 36.3518 92.52 36.1171 92.52 35.8398V20.2558C92.52 19.9571 92.6053 19.7225 92.776 19.5518C92.968 19.3811 93.2027 19.2958 93.48 19.2958C93.7787 19.2958 94.0133 19.3811 94.184 19.5518C94.3547 19.7225 94.44 19.9571 94.44 20.2558V35.8398C94.44 36.1171 94.3547 36.3518 94.184 36.5438C94.0133 36.7145 93.7787 36.7998 93.48 36.7998ZM93.448 15.6158C93.0427 15.6158 92.6907 15.4771 92.392 15.1998C92.1147 14.9011 91.976 14.5385 91.976 14.1118C91.976 13.6211 92.1253 13.2585 92.424 13.0238C92.744 12.7678 93.096 12.6398 93.48 12.6398C93.8427 12.6398 94.1733 12.7678 94.472 13.0238C94.792 13.2585 94.952 13.6211 94.952 14.1118C94.952 14.5385 94.8027 14.9011 94.504 15.1998C94.2267 15.4771 93.8747 15.6158 93.448 15.6158ZM115.985 36.7998C115.707 36.7998 115.473 36.7145 115.281 36.5438C115.11 36.3518 115.025 36.1171 115.025 35.8398V27.2318C115.025 25.8238 114.747 24.6611 114.193 23.7438C113.659 22.8265 112.923 22.1438 111.985 21.6958C111.067 21.2265 110.022 20.9918 108.849 20.9918C107.697 20.9918 106.662 21.2158 105.745 21.6638C104.827 22.0905 104.102 22.6878 103.569 23.4558C103.035 24.2238 102.769 25.0878 102.769 26.0478H101.169C101.254 24.7251 101.649 23.5411 102.353 22.4958C103.057 21.4291 103.974 20.5971 105.105 19.9998C106.235 19.3811 107.483 19.0718 108.849 19.0718C110.385 19.0718 111.761 19.3918 112.977 20.0318C114.214 20.6505 115.185 21.5678 115.889 22.7838C116.593 23.9785 116.945 25.4611 116.945 27.2318V35.8398C116.945 36.1171 116.849 36.3518 116.657 36.5438C116.486 36.7145 116.262 36.7998 115.985 36.7998ZM101.809 36.7998C101.531 36.7998 101.297 36.7145 101.105 36.5438C100.934 36.3518 100.849 36.1171 100.849 35.8398V20.2558C100.849 19.9571 100.934 19.7225 101.105 19.5518C101.297 19.3811 101.531 19.2958 101.809 19.2958C102.107 19.2958 102.342 19.3811 102.513 19.5518C102.683 19.7225 102.769 19.9571 102.769 20.2558V35.8398C102.769 36.1171 102.683 36.3518 102.513 36.5438C102.342 36.7145 102.107 36.7998 101.809 36.7998ZM123.98 36.7998C123.703 36.7998 123.468 36.7145 123.276 36.5438C123.105 36.3518 123.02 36.1171 123.02 35.8398V20.2558C123.02 19.9571 123.105 19.7225 123.276 19.5518C123.468 19.3811 123.703 19.2958 123.98 19.2958C124.279 19.2958 124.513 19.3811 124.684 19.5518C124.855 19.7225 124.94 19.9571 124.94 20.2558V35.8398C124.94 36.1171 124.855 36.3518 124.684 36.5438C124.513 36.7145 124.279 36.7998 123.98 36.7998ZM123.948 15.6158C123.543 15.6158 123.191 15.4771 122.892 15.1998C122.615 14.9011 122.476 14.5385 122.476 14.1118C122.476 13.6211 122.625 13.2585 122.924 13.0238C123.244 12.7678 123.596 12.6398 123.98 12.6398C124.343 12.6398 124.673 12.7678 124.972 13.0238C125.292 13.2585 125.452 13.6211 125.452 14.1118C125.452 14.5385 125.303 14.9011 125.004 15.1998C124.727 15.4771 124.375 15.6158 123.948 15.6158ZM132.629 31.3278L131.477 30.0478L143.189 19.3918C143.402 19.2211 143.605 19.1358 143.797 19.1358C144.01 19.1358 144.213 19.2425 144.405 19.4558C144.597 19.6691 144.693 19.8825 144.693 20.0958C144.693 20.3091 144.586 20.5011 144.373 20.6718L132.629 31.3278ZM132.309 36.7998C132.031 36.7998 131.797 36.7145 131.605 36.5438C131.434 36.3518 131.349 36.1171 131.349 35.8398V12.7678C131.349 12.4691 131.434 12.2345 131.605 12.0638C131.797 11.8931 132.031 11.8078 132.309 11.8078C132.607 11.8078 132.842 11.8931 133.013 12.0638C133.183 12.2345 133.269 12.4691 133.269 12.7678V35.8398C133.269 36.1171 133.183 36.3518 133.013 36.5438C132.842 36.7145 132.607 36.7998 132.309 36.7998ZM144.437 36.6398C144.223 36.8318 143.999 36.9065 143.765 36.8638C143.551 36.8425 143.359 36.7251 143.189 36.5118L135.605 27.2318L136.981 26.1118L144.565 35.3918C144.735 35.6051 144.81 35.8185 144.789 36.0318C144.789 36.2451 144.671 36.4478 144.437 36.6398ZM156.13 36.9918C154.423 36.9918 152.887 36.6078 151.522 35.8398C150.178 35.0505 149.111 33.9838 148.322 32.6398C147.554 31.2745 147.17 29.7491 147.17 28.0638C147.17 26.3571 147.554 24.8318 148.322 23.4878C149.111 22.1225 150.178 21.0558 151.522 20.2878C152.887 19.4985 154.423 19.1038 156.13 19.1038C157.837 19.1038 159.362 19.4985 160.706 20.2878C162.05 21.0558 163.106 22.1225 163.874 23.4878C164.663 24.8318 165.058 26.3571 165.058 28.0638L164.258 29.3438C164.258 30.7945 163.895 32.0958 163.17 33.2478C162.466 34.3998 161.506 35.3171 160.29 35.9998C159.074 36.6611 157.687 36.9918 156.13 36.9918ZM156.13 35.1998C157.474 35.1998 158.669 34.8905 159.714 34.2718C160.781 33.6318 161.613 32.7785 162.21 31.7118C162.829 30.6238 163.138 29.4078 163.138 28.0638C163.138 26.6985 162.829 25.4825 162.21 24.4158C161.613 23.3278 160.781 22.4745 159.714 21.8558C158.669 21.2158 157.474 20.8958 156.13 20.8958C154.807 20.8958 153.613 21.2158 152.546 21.8558C151.479 22.4745 150.637 23.3278 150.018 24.4158C149.399 25.4825 149.09 26.6985 149.09 28.0638C149.09 29.4078 149.399 30.6238 150.018 31.7118C150.637 32.7785 151.479 33.6318 152.546 34.2718C153.613 34.8905 154.807 35.1998 156.13 35.1998ZM164.13 36.7998C163.831 36.7998 163.586 36.7145 163.394 36.5438C163.223 36.3518 163.138 36.1171 163.138 35.8398V29.9838L163.746 28.0638H165.058V35.8398C165.058 36.1171 164.973 36.3518 164.802 36.5438C164.631 36.7145 164.407 36.7998 164.13 36.7998Z" fill="#E3E3E3"/>
<path d="M178.649 36.9278C176.985 36.9278 175.491 36.5438 174.169 35.7758C172.846 34.9865 171.801 33.9198 171.033 32.5758C170.265 31.2318 169.87 29.7171 169.849 28.0318V13.4398C169.849 12.9491 169.998 12.5545 170.297 12.2558C170.617 11.9571 171.011 11.8078 171.481 11.8078C171.971 11.8078 172.366 11.9571 172.665 12.2558C172.963 12.5545 173.113 12.9491 173.113 13.4398V22.0798C173.859 21.1838 174.755 20.4798 175.801 19.9678C176.867 19.4345 178.03 19.1678 179.289 19.1678C180.846 19.1678 182.243 19.5625 183.481 20.3518C184.718 21.1198 185.689 22.1758 186.393 23.5198C187.118 24.8425 187.481 26.3465 187.481 28.0318C187.481 29.7171 187.086 31.2318 186.297 32.5758C185.529 33.9198 184.483 34.9865 183.161 35.7758C181.838 36.5438 180.334 36.9278 178.649 36.9278ZM178.649 34.0478C179.737 34.0478 180.707 33.7918 181.561 33.2798C182.414 32.7465 183.086 32.0211 183.577 31.1038C184.089 30.1865 184.345 29.1625 184.345 28.0318C184.345 26.8798 184.089 25.8558 183.577 24.9598C183.086 24.0638 182.414 23.3598 181.561 22.8478C180.707 22.3145 179.737 22.0478 178.649 22.0478C177.582 22.0478 176.611 22.3145 175.737 22.8478C174.883 23.3598 174.211 24.0638 173.721 24.9598C173.23 25.8558 172.985 26.8798 172.985 28.0318C172.985 29.1625 173.23 30.1865 173.721 31.1038C174.211 32.0211 174.883 32.7465 175.737 33.2798C176.611 33.7918 177.582 34.0478 178.649 34.0478ZM215.325 36.8318C214.855 36.8318 214.461 36.6825 214.141 36.3838C213.842 36.0638 213.693 35.6691 213.693 35.1998V26.0478C213.693 24.7038 213.362 23.7118 212.701 23.0718C212.039 22.4105 211.175 22.0798 210.109 22.0798C208.999 22.0798 208.082 22.4638 207.357 23.2318C206.653 23.9998 206.301 24.9811 206.301 26.1758H203.645C203.645 24.7891 203.943 23.5731 204.541 22.5278C205.138 21.4611 205.97 20.6291 207.037 20.0318C208.125 19.4345 209.362 19.1358 210.749 19.1358C211.965 19.1358 213.042 19.4025 213.981 19.9358C214.919 20.4691 215.645 21.2585 216.157 22.3038C216.69 23.3278 216.957 24.5758 216.957 26.0478V35.1998C216.957 35.6691 216.807 36.0638 216.509 36.3838C216.21 36.6825 215.815 36.8318 215.325 36.8318ZM193.981 36.8318C193.511 36.8318 193.117 36.6825 192.797 36.3838C192.498 36.0638 192.349 35.6691 192.349 35.1998V20.9598C192.349 20.4691 192.498 20.0745 192.797 19.7758C193.117 19.4771 193.511 19.3278 193.981 19.3278C194.471 19.3278 194.866 19.4771 195.165 19.7758C195.463 20.0745 195.613 20.4691 195.613 20.9598V35.1998C195.613 35.6691 195.463 36.0638 195.165 36.3838C194.866 36.6825 194.471 36.8318 193.981 36.8318ZM204.669 36.8318C204.199 36.8318 203.805 36.6825 203.485 36.3838C203.186 36.0638 203.037 35.6691 203.037 35.1998V26.0478C203.037 24.7038 202.706 23.7118 202.045 23.0718C201.383 22.4105 200.519 22.0798 199.453 22.0798C198.343 22.0798 197.426 22.4638 196.701 23.2318C195.975 23.9998 195.613 24.9811 195.613 26.1758H193.597C193.597 24.7891 193.874 23.5731 194.429 22.5278C194.983 21.4611 195.751 20.6291 196.733 20.0318C197.714 19.4345 198.834 19.1358 200.093 19.1358C201.309 19.1358 202.386 19.4025 203.325 19.9358C204.263 20.4691 204.989 21.2585 205.501 22.3038C206.034 23.3278 206.301 24.5758 206.301 26.0478V35.1998C206.301 35.6691 206.151 36.0638 205.853 36.3838C205.554 36.6825 205.159 36.8318 204.669 36.8318Z" fill="white"/>
</svg>
