<svg width="46" height="38" viewBox="0 0 46 38" fill="none" xmlns="http://www.w3.org/2000/svg">
<path d="M11.6575 1.15639C12.7967 0.787814 13.9867 0.600098 15.1842 0.600098H30.8158C32.0133 0.600098 33.2033 0.787814 34.3425 1.15639L35.1707 1.42434C36.2957 1.78835 37.3219 2.40599 38.1698 3.22947C39.3587 4.38406 40.1432 5.89068 40.4072 7.52584L40.6468 9.0107C40.7038 9.36398 40.7813 9.71259 40.8785 10.0549L43.7106 9.55608C44.5454 9.40905 45.3415 9.96584 45.4887 10.7997C45.6359 11.6336 45.0785 12.4288 44.2437 12.5758L42.2693 12.9236C42.3402 13.0216 42.4132 13.1184 42.4881 13.2138L42.8727 13.7037C44.8988 16.284 46 19.4687 46 22.748V31.4365C46 33.1626 45.3095 34.8172 44.0821 36.0322L43.9309 36.1819C42.6726 37.4276 40.9863 37.4089 39.9827 37.3978C39.8947 37.3968 39.8119 37.3959 39.7351 37.3959C39.6938 37.3959 39.6515 37.396 39.6081 37.3961L39.6047 37.3961C38.4767 37.3985 36.6397 37.4024 35.3255 35.9591L35.2438 35.8694C34.1998 34.7228 33.6213 33.2287 33.6213 31.6788V30.4967C33.6213 29.65 34.3085 28.9635 35.1562 28.9635C36.0039 28.9635 36.6911 29.65 36.6911 30.4967V31.6788C36.6911 32.4656 36.9848 33.2242 37.5148 33.8062L37.5965 33.896C37.7496 34.0641 37.9396 34.1719 38.2648 34.2411C38.6383 34.3205 39.0843 34.3296 39.7351 34.3296L39.9152 34.3297C40.462 34.3303 40.8287 34.3307 41.1623 34.2741C41.4748 34.221 41.6396 34.1331 41.77 34.004L41.9212 33.8543C42.5669 33.2151 42.9302 32.3446 42.9302 31.4365V22.748C42.9302 20.1548 42.0594 17.6365 40.4572 15.596L40.0726 15.1062C38.7917 13.4749 37.9465 11.5455 37.6161 9.49874L37.3765 8.01387C37.2176 7.02969 36.7454 6.12287 36.0299 5.42793C35.5195 4.93228 34.9019 4.56054 34.2247 4.34144L33.3965 4.0735C32.5629 3.80378 31.6921 3.66642 30.8158 3.66642H15.1842C14.3079 3.66642 13.4371 3.80378 12.6035 4.0735L11.7753 4.34144C11.0981 4.56054 10.4805 4.93229 9.97013 5.42793C9.25458 6.12286 8.78236 7.02968 8.62351 8.01387L8.38386 9.49873C8.05353 11.5455 7.2083 13.4749 5.9274 15.1062L5.54277 15.596C3.94056 17.6365 3.0698 20.1548 3.0698 22.748V31.4365C3.0698 32.3446 3.43306 33.2151 4.07879 33.8543L4.23001 34.004C4.52632 34.2974 4.79229 34.3296 6.13961 34.3296C6.78661 34.3296 7.27409 34.3212 7.68885 34.2377C8.07123 34.1607 8.27113 34.0413 8.40346 33.896L8.48519 33.8062C9.01519 33.2242 9.30888 32.4656 9.30888 31.6788V30.7522C9.30888 30.7033 9.31117 30.6549 9.31566 30.6072C9.31306 30.5707 9.31174 30.5338 9.31174 30.4967V28.2713C9.31174 27.8209 9.50603 27.3931 9.84346 27.0966C9.85526 27.0863 9.86725 27.076 9.87944 27.066C11.1792 25.9916 12.2368 24.6548 12.9828 23.1434L14.5006 20.0686C15.1448 18.7638 17.0563 18.9232 17.4749 20.3166L18.8788 24.9901L21.5435 15.475C22.0748 13.5779 24.7209 13.4553 25.4257 15.2951L28.178 22.4792L29.4423 20.1325C29.7991 19.4701 30.4914 19.057 31.2444 19.057H33.9356C34.7833 19.057 35.4705 19.7434 35.4705 20.5902C35.4705 21.4369 34.7833 22.1233 33.9356 22.1233H31.8558L29.8228 25.8969C28.9928 27.4374 26.7352 27.2926 26.1092 25.6588L23.6655 19.2801L20.8841 29.2119C20.3318 31.1839 17.5422 31.21 16.953 29.2487L15.6045 24.7596C14.7866 26.3386 13.695 27.759 12.3815 28.9553V30.4967C12.3815 30.5456 12.3792 30.594 12.3748 30.6418C12.3774 30.6783 12.3787 30.7151 12.3787 30.7522V31.6788C12.3787 33.2287 11.8002 34.7228 10.7562 35.8694L10.6745 35.9591C9.96805 36.7349 9.09155 37.0832 8.29558 37.2435C7.53866 37.3959 6.75302 37.3959 6.15537 37.3959H6.1396C6.06197 37.3959 5.97977 37.3967 5.89354 37.3976C4.88419 37.4078 3.32322 37.4235 2.06907 36.1819L1.91786 36.0322C0.690464 34.8172 0 33.1626 0 31.4365V22.748C0 19.4687 1.10115 16.284 3.1273 13.7037L3.51193 13.2138C3.58874 13.116 3.66346 13.0167 3.73607 12.9161L1.80329 12.5757C0.968462 12.4287 0.411034 11.6335 0.558236 10.7996C0.705438 9.96574 1.50153 9.40894 2.33635 9.55598L5.12373 10.0469C5.21989 9.70718 5.29662 9.36123 5.35319 9.0107L5.59284 7.52584C5.85675 5.89068 6.64132 4.38406 7.83016 3.22947C8.67808 2.40599 9.70426 1.78835 10.8293 1.42434L11.6575 1.15639Z" fill="url(#paint0_linear_1106_183)"/>
<defs>
<linearGradient id="paint0_linear_1106_183" x1="24.2778" y1="-20.8666" x2="23.4599" y2="37.4066" gradientUnits="userSpaceOnUse">
<stop offset="0.329089" stop-color="#024887"/>
<stop offset="1" stop-color="#0785D6"/>
</linearGradient>
</defs>
</svg>
