<svg width="21" height="20" viewBox="0 0 21 20" fill="none" xmlns="http://www.w3.org/2000/svg">
<path d="M9.07341 2.00861C9.52244 0.626645 11.4776 0.626646 11.9266 2.00861L12.9432 5.13729C13.2778 6.16734 14.2377 6.86475 15.3208 6.86475H18.6105C20.0636 6.86475 20.6677 8.72417 19.4922 9.57827L16.8307 11.5119C15.9545 12.1485 15.5879 13.2769 15.9226 14.307L16.9391 17.4357C17.3882 18.8176 15.8064 19.9668 14.6309 19.1127L11.9695 17.1791C11.0932 16.5425 9.90676 16.5425 9.03054 17.1791L6.36913 19.1127C5.19355 19.9668 3.61183 18.8176 4.06086 17.4357L5.07743 14.307C5.41212 13.2769 5.04547 12.1485 4.16925 11.5119L1.50784 9.57827C0.332272 8.72417 0.936436 6.86475 2.38952 6.86475H5.6792C6.76227 6.86475 7.72216 6.16735 8.05685 5.13729L9.07341 2.00861Z" fill="url(#paint0_linear_801_1000)" stroke="url(#paint1_linear_801_1000)"/>
<defs>
<linearGradient id="paint0_linear_801_1000" x1="10.5" y1="-4" x2="10.5" y2="26" gradientUnits="userSpaceOnUse">
<stop stop-color="#FFBF5F"/>
<stop offset="1" stop-color="#EB8629"/>
</linearGradient>
<linearGradient id="paint1_linear_801_1000" x1="10.5" y1="-4" x2="10.5" y2="26" gradientUnits="userSpaceOnUse">
<stop stop-color="#FFBF5F"/>
<stop offset="1" stop-color="#EB8629"/>
</linearGradient>
</defs>
</svg>
